<svg width="180" height="44" viewBox="0 0 180 44" fill="none" xmlns="http://www.w3.org/2000/svg">
<path d="M41.3046 31.5529C37.7253 38.6974 30.3359 43.602 21.801 43.602C9.76063 43.602 0 33.8413 0 21.801C0 9.76063 9.76063 0 21.801 0C30.3359 0 37.7253 4.90457 41.3046 12.0491L36.4287 14.487C33.7442 9.12866 28.2022 5.45025 21.801 5.45025C12.7707 5.45025 5.45024 12.7707 5.45024 21.801C5.45024 30.8312 12.7707 38.1517 21.801 38.1517C28.2022 38.1517 33.7442 34.4733 36.4287 29.1149L41.3046 31.5529Z" fill="white"/>
<path d="M43.6017 21.8986C43.6019 21.8661 43.6019 21.8335 43.6019 21.801C43.6019 21.7684 43.6019 21.7359 43.6017 21.7034V21.8986Z" fill="white"/>
<rect x="19.129" y="10.9004" width="5.45024" height="21.801" fill="url(#paint0_linear_2_624)"/>
<path d="M24.5792 10.9004C24.5792 16.9206 19.6989 21.8009 13.6787 21.8009V16.3507C16.6888 16.3507 19.1289 13.9105 19.1289 10.9004H24.5792Z" fill="white"/>
<path d="M61.301 26.0401H59.4133V15.4447H66.6519V17.1195H61.301V20.5047H66.07V22.1014H61.301V26.0401Z" fill="white"/>
<path d="M73.1497 15.4447V26.0401H71.2619V15.4447H73.1497Z" fill="white"/>
<path d="M80.499 26.0401H78.6113V15.4447H83.9054C84.9273 15.4447 85.7079 15.7215 86.2473 16.275C86.7866 16.8238 87.0563 17.5879 87.0563 18.5673C87.0563 19.1965 86.9144 19.7359 86.6305 20.1853C86.3466 20.63 85.9563 20.9399 85.4595 21.115V21.2143H85.935C86.7015 21.2143 87.0847 21.6259 87.0847 22.4491V26.0401H85.1402V22.144H80.499V26.0401ZM80.499 17.0983V20.5898H83.437C83.9338 20.5898 84.3241 20.4692 84.6079 20.2279C84.8918 19.9866 85.0337 19.6578 85.0337 19.2414V18.4395C85.0337 18.0043 84.8918 17.6731 84.6079 17.446C84.3288 17.2142 83.9385 17.0983 83.437 17.0983H80.499Z" fill="white"/>
<path d="M91.5244 22.7401H93.483C93.502 23.3504 93.7243 23.8235 94.1501 24.1594C94.5807 24.4906 95.1626 24.6562 95.8959 24.6562C96.5583 24.6562 97.0763 24.519 97.4501 24.2446C97.8286 23.9655 98.0178 23.5799 98.0178 23.0878C98.0178 22.8986 97.98 22.7212 97.9043 22.5556C97.8333 22.39 97.7458 22.2575 97.6417 22.1582C97.5376 22.073 97.4075 21.995 97.2514 21.924C97.2135 21.9051 97.178 21.8885 97.1449 21.8743C97.1165 21.8601 97.0858 21.8483 97.0527 21.8388C97.0243 21.8246 97.0006 21.8152 96.9817 21.8104C96.9628 21.801 96.9391 21.7915 96.9107 21.7821C96.8824 21.7726 96.8611 21.7655 96.8469 21.7608C96.8327 21.756 96.809 21.7513 96.7759 21.7466C96.7428 21.7371 96.7191 21.7324 96.7049 21.7324C96.6907 21.7276 96.6624 21.7229 96.6198 21.7182C96.5819 21.7087 96.5535 21.7016 96.5346 21.6969L94.8101 21.3137C94.7108 21.29 94.5807 21.2616 94.4198 21.2285C94.2589 21.1954 94.1501 21.1717 94.0934 21.1576C93.942 21.1197 93.6912 21.018 93.3411 20.8524C92.9674 20.6679 92.7 20.5023 92.5392 20.3556C92.3263 20.1569 92.1418 19.8849 91.9856 19.5395C91.8342 19.1941 91.7586 18.8275 91.7586 18.4395C91.7586 17.4886 92.1157 16.7269 92.8302 16.1544C93.554 15.5867 94.5097 15.3028 95.6972 15.3028C96.8942 15.3028 97.8475 15.5819 98.5572 16.1402C99.2999 16.7127 99.6784 17.4744 99.6926 18.4253H97.7269C97.6985 17.9096 97.4998 17.5122 97.1307 17.2331C96.7664 16.954 96.2791 16.8144 95.6688 16.8144C95.068 16.8144 94.602 16.9374 94.2708 17.1834C93.9396 17.4247 93.774 17.7606 93.774 18.1911C93.774 18.5081 93.9065 18.7991 94.1714 19.064C94.3134 19.1681 94.4577 19.2462 94.6043 19.2982C94.9639 19.4165 95.2359 19.4922 95.4204 19.5253L97.2798 19.9085C99.1202 20.2965 100.04 21.2853 100.04 22.8749C100.04 23.9253 99.6572 24.739 98.8907 25.3162C98.1243 25.8934 97.1023 26.182 95.8249 26.182C94.4813 26.182 93.4215 25.8626 92.6456 25.2239C91.8839 24.5616 91.5102 23.7336 91.5244 22.7401Z" fill="white"/>
<path d="M103.259 15.4447H111.314V17.1195H108.234V26.0401H106.325V17.1195H103.259V15.4447Z" fill="white"/>
<path d="M125.935 26.182C124.392 26.182 123.186 25.7042 122.315 24.7485C121.445 23.7786 121.01 22.4515 121.01 20.7672C121.01 19.0546 121.45 17.7157 122.33 16.7505C123.21 15.7854 124.452 15.3028 126.055 15.3028C127.385 15.3028 128.478 15.6505 129.334 16.346C130.19 17.0226 130.675 17.9475 130.789 19.1208H128.802C128.683 18.4632 128.378 17.9451 127.886 17.5666C127.394 17.1881 126.763 16.9989 125.991 16.9989C125.088 16.9989 124.364 17.2615 123.82 17.7866C123.281 18.3118 123.011 19.0238 123.011 19.9227V21.6543C123.011 22.4917 123.278 23.1777 123.813 23.7124C124.352 24.2375 125.069 24.5001 125.963 24.5001C126.692 24.5001 127.309 24.3085 127.815 23.9253C128.326 23.542 128.655 23.0216 128.802 22.364H130.789C130.628 23.542 130.11 24.4717 129.235 25.153C128.355 25.839 127.255 26.182 125.935 26.182Z" fill="white"/>
<path d="M142.084 26.0401H135.569V15.4447H137.457V24.3369H142.084V26.0401Z" fill="white"/>
<path d="M155.529 26.0401H153.45L152.712 23.9182H148.262L147.51 26.0401H145.53L149.384 15.4447H151.591L155.529 26.0401ZM149.313 20.9517L148.787 22.4208H152.187L151.676 20.9517L150.562 17.4247H150.469L149.313 20.9517Z" fill="white"/>
<path d="M158.812 22.7401H160.771C160.79 23.3504 161.012 23.8235 161.438 24.1594C161.868 24.4906 162.45 24.6562 163.184 24.6562C163.846 24.6562 164.364 24.519 164.738 24.2446C165.116 23.9655 165.306 23.5799 165.306 23.0878C165.306 22.8986 165.268 22.7212 165.192 22.5556C165.121 22.39 165.034 22.2575 164.93 22.1582C164.825 22.073 164.695 21.995 164.539 21.924C164.501 21.9051 164.466 21.8885 164.433 21.8743C164.404 21.8601 164.374 21.8483 164.34 21.8388C164.312 21.8246 164.288 21.8152 164.27 21.8104C164.251 21.801 164.227 21.7915 164.199 21.7821C164.17 21.7726 164.149 21.7655 164.135 21.7608C164.12 21.756 164.097 21.7513 164.064 21.7466C164.031 21.7371 164.007 21.7324 163.993 21.7324C163.979 21.7276 163.95 21.7229 163.908 21.7182C163.87 21.7087 163.841 21.7016 163.822 21.6969L162.098 21.3137C161.999 21.29 161.868 21.2616 161.708 21.2285C161.547 21.1954 161.438 21.1717 161.381 21.1576C161.23 21.1197 160.979 21.018 160.629 20.8524C160.255 20.6679 159.988 20.5023 159.827 20.3556C159.614 20.1569 159.43 19.8849 159.273 19.5395C159.122 19.1941 159.046 18.8275 159.046 18.4395C159.046 17.4886 159.404 16.7269 160.118 16.1544C160.842 15.5867 161.798 15.3028 162.985 15.3028C164.182 15.3028 165.135 15.5819 165.845 16.1402C166.588 16.7127 166.966 17.4744 166.98 18.4253H165.015C164.986 17.9096 164.788 17.5122 164.419 17.2331C164.054 16.954 163.567 16.8144 162.957 16.8144C162.356 16.8144 161.89 16.9374 161.559 17.1834C161.227 17.4247 161.062 17.7606 161.062 18.1911C161.062 18.5081 161.194 18.7991 161.459 19.064C161.601 19.1681 161.745 19.2462 161.892 19.2982C162.252 19.4165 162.524 19.4922 162.708 19.5253L164.568 19.9085C166.408 20.2965 167.328 21.2853 167.328 22.8749C167.328 23.9253 166.945 24.739 166.179 25.3162C165.412 25.8934 164.39 26.182 163.113 26.182C161.769 26.182 160.709 25.8626 159.933 25.2239C159.172 24.5616 158.798 23.7336 158.812 22.7401Z" fill="white"/>
<path d="M171.484 22.7401H173.443C173.462 23.3504 173.684 23.8235 174.11 24.1594C174.54 24.4906 175.122 24.6562 175.856 24.6562C176.518 24.6562 177.036 24.519 177.41 24.2446C177.788 23.9655 177.977 23.5799 177.977 23.0878C177.977 22.8986 177.94 22.7212 177.864 22.5556C177.793 22.39 177.705 22.2575 177.601 22.1582C177.497 22.073 177.367 21.995 177.211 21.924C177.173 21.9051 177.138 21.8885 177.105 21.8743C177.076 21.8601 177.045 21.8483 177.012 21.8388C176.984 21.8246 176.96 21.8152 176.941 21.8104C176.922 21.801 176.899 21.7915 176.87 21.7821C176.842 21.7726 176.821 21.7655 176.807 21.7608C176.792 21.756 176.769 21.7513 176.736 21.7466C176.702 21.7371 176.679 21.7324 176.665 21.7324C176.65 21.7276 176.622 21.7229 176.579 21.7182C176.542 21.7087 176.513 21.7016 176.494 21.6969L174.77 21.3137C174.67 21.29 174.54 21.2616 174.379 21.2285C174.219 21.1954 174.11 21.1717 174.053 21.1576C173.902 21.1197 173.651 21.018 173.301 20.8524C172.927 20.6679 172.66 20.5023 172.499 20.3556C172.286 20.1569 172.101 19.8849 171.945 19.5395C171.794 19.1941 171.718 18.8275 171.718 18.4395C171.718 17.4886 172.075 16.7269 172.79 16.1544C173.514 15.5867 174.469 15.3028 175.657 15.3028C176.854 15.3028 177.807 15.5819 178.517 16.1402C179.26 16.7127 179.638 17.4744 179.652 18.4253H177.686C177.658 17.9096 177.459 17.5122 177.09 17.2331C176.726 16.954 176.239 16.8144 175.628 16.8144C175.028 16.8144 174.562 16.9374 174.23 17.1834C173.899 17.4247 173.734 17.7606 173.734 18.1911C173.734 18.5081 173.866 18.7991 174.131 19.064C174.273 19.1681 174.417 19.2462 174.564 19.2982C174.924 19.4165 175.196 19.4922 175.38 19.5253L177.239 19.9085C179.08 20.2965 180 21.2853 180 22.8749C180 23.9253 179.617 24.739 178.85 25.3162C178.084 25.8934 177.062 26.182 175.785 26.182C174.441 26.182 173.381 25.8626 172.605 25.2239C171.844 24.5616 171.47 23.7336 171.484 22.7401Z" fill="white"/>
<defs>
<linearGradient id="paint0_linear_2_624" x1="21.8541" y1="17.1293" x2="21.8541" y2="24.1367" gradientUnits="userSpaceOnUse">
<stop stop-color="white" stop-opacity="0"/>
<stop offset="1" stop-color="white"/>
</linearGradient>
</defs>
</svg>
